<?xml version="1.0" encoding="UTF-8" standalone="no"?>
<!-- Created with Inkscape (http://www.inkscape.org/) -->

<svg
   width="37.308819mm"
   height="32.00016mm"
   viewBox="0 0 37.308819 32.00016"
   version="1.1"
   id="svg1"
   xmlns="http://www.w3.org/2000/svg"
   xmlns:svg="http://www.w3.org/2000/svg">
  <defs
     id="defs1" />
  <g
     id="layer1">
    <g
       id="g11-8-7-8"
       transform="translate(-67.48617,-255.88309)">
      <path
         id="path26-2-7-7-4-8-0"
         style="fill:#336f9e;fill-opacity:1;stroke:none;stroke-width:1;stroke-dasharray:none;stroke-opacity:1"
         d="m 272.65246,214.44416 c -12.33601,0 -25.8987,7.04924 -31.54602,11.90002 -7.63002,6.55382 -13.91537,13.35615 -12.82953,24.04544 l 0,0 a 9.36521,9.36521 106.50037 0 0 -3.85913,13.02789 l 0.37549,0.65027 5.09864,-2.59798 13.37655,-6.81372 c -0.30915,-1.99319 -0.56906,-3.79074 -0.70879,-5.03146 -0.82883,-7.35891 3.47014,-12.0114 8.69058,-16.49551 3.8314,-3.29098 13.03289,-8.07227 21.40221,-8.07227 8.36931,0 17.57218,4.78129 21.40358,8.07227 5.22043,4.48411 9.51941,9.1366 8.69058,16.49551 -0.13981,1.2413 -0.39944,3.03984 -0.7088,5.0342 l 13.37519,6.81235 5.09863,2.59799 0.37611,-0.65134 a 9.3646395,9.3646395 73.501447 0 0 -3.85837,-13.02683 l 0,0 c 1.08652,-10.69009 -5.19919,-17.4927 -12.82954,-24.04681 -5.64732,-4.85078 -19.21137,-11.90002 -31.54738,-11.90002 z"
         transform="matrix(0.37693341,0,0,0.37693341,-16.631342,175.05192)" />
      <path
         id="path26-2-79-0-3-6"
         style="fill:#87b8d8;fill-opacity:1;stroke:none;stroke-width:1;stroke-dasharray:none;stroke-opacity:1"
         d="m 272.65218,214.44492 c -12.33601,0 -25.89862,7.0474 -31.54594,11.89818 -7.6947,6.60938 -14.0312,13.46697 -12.80954,24.31367 0.20597,1.82879 0.58905,4.47828 1.04473,7.41616 l -27.23164,13.87245 7.82839,13.55722 16.21854,-8.26285 0.002,-0.002 5.8824,-2.99678 19.70838,-10.04111 c -0.002,-0.0114 -1.98351,-11.1098 -2.42894,-15.06469 -0.64265,-5.70581 2.68944,-9.31249 6.73718,-12.78933 2.97073,-2.55169 10.10513,-6.26029 16.59441,-6.26029 6.48927,0 13.62569,3.7086 16.59642,6.26029 4.04775,3.47684 7.37986,7.08352 6.73718,12.78933 -0.44543,3.95489 -2.4269,15.05296 -2.42894,15.06469 l 19.70838,10.04314 5.88039,2.99677 16.22056,8.26487 7.82839,-13.55722 -27.22961,-13.87043 c 0.45597,-2.93957 0.83865,-5.59054 1.04472,-7.4202 1.22166,-10.8467 -5.11483,-17.70429 -12.80953,-24.31367 -5.64732,-4.85078 -19.21195,-11.89818 -31.54796,-11.89818 z m 0,39.09951 v 0.004 h 0.002 v -0.004 z"
         transform="matrix(0.25572889,0,0,0.25572889,16.41544,205.0436)" />
      <path
         id="path25-0-8-76-5-8"
         style="fill:#ffffff;fill-opacity:1;stroke:none;stroke-width:0.1;stroke-dasharray:none;stroke-opacity:1"
         d="m 86.140479,263.88312 5.16e-4,6.00015 h -5.16e-4 z m 0,0 c -1.659495,0 -3.483967,0.94839 -4.243669,1.60093 -1.035125,0.88913 -1.887235,1.81146 -1.722892,3.2706 0.11391,1.01138 0.620629,3.84956 0.62115,3.85248 l -10.69237,5.44825 a 18,18 0 0 0 16.037781,9.82782 18,18 0 0 0 16.038301,-9.82782 l -10.692375,-5.44825 c 5.22e-4,-0.003 0.507241,-2.8411 0.621151,-3.85248 0.164343,-1.45914 -0.687767,-2.38147 -1.722892,-3.2706 -0.759702,-0.65254 -2.584691,-1.60093 -4.244185,-1.60093 z" />
      <path
         id="path25-0-8-4-3-1-1"
         style="fill:#ffc511;fill-opacity:1;stroke:none;stroke-width:0.1;stroke-dasharray:none;stroke-opacity:1"
         d="m 87.519722,273.13268 c -0.06395,0.0151 -0.273119,0.0591 -0.405143,0.0708 -0.24348,0.0215 -1.727459,0.0215 -1.970939,0 -0.122769,-0.0108 -0.303723,-0.048 -0.384473,-0.0661 l -5.640999,13.28963 c 2.219393,0.95153 4.607557,1.44678 7.022311,1.45624 2.414718,-0.009 4.80288,-0.50436 7.02231,-1.45572 z" />
      <path
         id="path25-0-1-6-6-2-9"
         style="fill:#000000;fill-opacity:1;stroke:none;stroke-width:0.1;stroke-dasharray:none;stroke-opacity:1"
         d="m 86.976086,266.1822 c -0.847212,-0.001 -1.694157,0.008 -2.541447,0.005 -0.0886,-0.003 -0.159388,0.0616 -0.169498,0.0713 l -0.173633,0.19999 c -0.26941,0.0795 -0.448292,0.17908 -0.558622,0.4346 -0.0372,0.13229 -0.214974,1.70327 -0.214974,2.95176 0,1.24851 0.214974,2.8422 0.214974,2.8422 l 0.47904,0.34933 v 0.5333 l -6.871415,11.90212 a 18,18 0 0 0 1.966805,0.9803 l 5.651851,-13.31495 c 0.08075,0.0181 0.261704,0.0553 0.384473,0.0661 0.24348,0.0215 1.727459,0.0215 1.970939,0 0.132024,-0.0117 0.341194,-0.0557 0.405143,-0.0708 l 5.653919,13.3196 a 18,18 0 0 0 1.967322,-0.9803 l -6.89467,-11.94139 v -0.49403 l 0.479041,-0.3483 c 0,0 0.214974,-1.59472 0.214974,-2.84323 0,-1.24849 -0.177774,-2.81947 -0.214974,-2.95176 -0.071,-0.2754 -0.317323,-0.34332 -0.558623,-0.4346 l -0.173632,-0.19999 c -0.0101,-0.01 -0.08087,-0.0741 -0.169499,-0.0713 -0.282433,-0.003 -0.565089,-0.005 -0.847494,-0.005 z" />
    </g>
  </g>
</svg>
